<?xml version="1.0" encoding="UTF-8"?>
<!DOCTYPE svg PUBLIC "-//W3C//DTD SVG 1.1//EN" "http://www.w3.org/Graphics/SVG/1.1/DTD/svg11.dtd">
<svg xmlns="http://www.w3.org/2000/svg" version="1.1" width="1001px" height="724px" style="shape-rendering:geometricPrecision; text-rendering:geometricPrecision; image-rendering:optimizeQuality; fill-rule:evenodd; clip-rule:evenodd" xmlns:xlink="http://www.w3.org/1999/xlink">
<g><path style="opacity:1" fill="#90d6ed" d="M 475.5,-0.5 C 491.167,-0.5 506.833,-0.5 522.5,-0.5C 644.235,10.0916 739.068,65.7582 807,166.5C 870.588,272.217 880.588,382.883 837,498.5C 791.219,603.611 713.719,673.777 604.5,709C 577.495,716.555 550.162,721.388 522.5,723.5C 506.833,723.5 491.167,723.5 475.5,723.5C 356.086,712.402 262.586,657.735 195,559.5C 135.341,463.548 121.341,361.215 153,252.5C 192.428,136.739 269.761,58.4055 385,17.5C 414.629,8.07411 444.795,2.07411 475.5,-0.5 Z"/></g>
<g><path style="opacity:0.998" fill="#fefefe" d="M 279.5,133.5 C 320.833,133.5 362.167,133.5 403.5,133.5C 403.5,150.167 403.5,166.833 403.5,183.5C 378.833,183.5 354.167,183.5 329.5,183.5C 329.5,299.167 329.5,414.833 329.5,530.5C 354.167,530.5 378.833,530.5 403.5,530.5C 403.5,547.167 403.5,563.833 403.5,580.5C 362.167,580.5 320.833,580.5 279.5,580.5C 279.5,431.5 279.5,282.5 279.5,133.5 Z"/></g>
<g><path style="opacity:0.998" fill="#fefefe" d="M 602.5,133.5 C 643.833,133.5 685.167,133.5 726.5,133.5C 726.5,282.5 726.5,431.5 726.5,580.5C 685.167,580.5 643.833,580.5 602.5,580.5C 602.5,563.833 602.5,547.167 602.5,530.5C 627.167,530.5 651.833,530.5 676.5,530.5C 676.5,414.833 676.5,299.167 676.5,183.5C 651.833,183.5 627.167,183.5 602.5,183.5C 602.5,166.833 602.5,150.167 602.5,133.5 Z"/></g>
<g><path style="opacity:0.996" fill="#fefffe" d="M 379.5,232.5 C 461.834,232.333 544.167,232.5 626.5,233C 627.492,249.423 627.825,265.923 627.5,282.5C 544.5,282.5 461.5,282.5 378.5,282.5C 378.182,265.756 378.515,249.089 379.5,232.5 Z"/></g>
<g><path style="opacity:1" fill="#acccd5" d="M -0.5,384.5 C -0.5,375.167 -0.5,365.833 -0.5,356.5C 7.63091,309.527 33.9642,277.36 78.5,260C 92.8138,255.408 107.48,253.574 122.5,254.5C 102.133,332.439 104.133,409.773 128.5,486.5C 68.6424,489.007 27.4757,462.674 5,407.5C 2.69968,399.806 0.866349,392.14 -0.5,384.5 Z"/></g>
<g><path style="opacity:1" fill="#acccd5" d="M 1000.5,356.5 C 1000.5,365.833 1000.5,375.167 1000.5,384.5C 992.024,434.819 963.357,467.652 914.5,483C 900.343,486.099 886.009,487.266 871.5,486.5C 895.867,409.773 897.867,332.439 877.5,254.5C 924.183,253.421 960.017,272.421 985,311.5C 993.085,325.632 998.252,340.632 1000.5,356.5 Z"/></g>
<g><path style="opacity:0.999" fill="#fefefe" d="M 378.5,332.5 C 461.5,332.5 544.5,332.5 627.5,332.5C 627.5,348.833 627.5,365.167 627.5,381.5C 544.5,381.5 461.5,381.5 378.5,381.5C 378.5,365.167 378.5,348.833 378.5,332.5 Z"/></g>
<g><path style="opacity:0.996" fill="#fefffe" d="M 378.5,431.5 C 461.5,431.5 544.5,431.5 627.5,431.5C 627.825,448.077 627.492,464.577 626.5,481C 544.167,481.667 461.833,481.667 379.5,481C 378.508,464.577 378.175,448.077 378.5,431.5 Z"/></g>
</svg>
