<?xml version="1.0" encoding="UTF-8"?>
<!DOCTYPE svg PUBLIC "-//W3C//DTD SVG 1.1//EN" "http://www.w3.org/Graphics/SVG/1.1/DTD/svg11.dtd">
<svg xmlns="http://www.w3.org/2000/svg" version="1.1" width="944px" height="737px" style="shape-rendering:geometricPrecision; text-rendering:geometricPrecision; image-rendering:optimizeQuality; fill-rule:evenodd; clip-rule:evenodd" xmlns:xlink="http://www.w3.org/1999/xlink">
<g><path style="opacity:1" fill="#514882" d="M 806.5,-0.5 C 815.833,-0.5 825.167,-0.5 834.5,-0.5C 884.819,7.97649 917.652,36.6432 933,85.5C 944.436,141.231 926.602,184.731 879.5,216C 873.621,219.106 867.621,221.94 861.5,224.5C 830.694,154.686 784.36,97.3528 722.5,52.5C 742.818,22.6734 770.818,5.00676 806.5,-0.5 Z"/></g>
<g><path style="opacity:0.999" fill="#1b0e61" d="M 511.5,736.5 C 503.167,736.5 494.833,736.5 486.5,736.5C 363.4,728.218 266.567,673.885 196,573.5C 135.341,477.885 120.674,375.552 152,266.5C 182.439,174.409 239.606,104.243 323.5,56C 423.511,3.50901 526.511,-3.15765 632.5,36C 724.199,74.0318 790.699,138.198 832,228.5C 875.219,333.668 871.886,437.334 822,539.5C 762.21,648.365 670.71,712.865 547.5,733C 535.367,734.39 523.367,735.557 511.5,736.5 Z"/></g>
<g><path style="opacity:1" fill="#fdfdfd" d="M 501.5,91.5 C 513.322,91.4149 523.656,95.2482 532.5,103C 576.288,146.788 620.455,190.955 665,235.5C 682.322,256.765 681.489,277.265 662.5,297C 655.754,302.224 648.087,305.224 639.5,306C 549.167,306.667 458.833,306.667 368.5,306C 347.567,303.067 335.067,291.233 331,270.5C 330.281,264.027 330.947,257.694 333,251.5C 336.302,246.187 339.635,240.854 343,235.5C 387.572,190.928 431.739,146.761 475.5,103C 483.084,96.5347 491.75,92.7014 501.5,91.5 Z"/></g>
<g><path style="opacity:0.999" fill="#1b0e61" d="M 503.5,152.5 C 536.632,185.132 569.632,217.965 602.5,251C 536.833,251.667 471.167,251.667 405.5,251C 438.368,218.299 471.035,185.465 503.5,152.5 Z"/></g>
<g><path style="opacity:1" fill="#514882" d="M -0.5,396.5 C -0.5,387.167 -0.5,377.833 -0.5,368.5C 7.63091,321.527 33.9642,289.36 78.5,272C 92.8138,267.408 107.48,265.574 122.5,266.5C 102.133,344.439 104.133,421.773 128.5,498.5C 68.6424,501.007 27.4757,474.674 5,419.5C 2.69968,411.806 0.866349,404.14 -0.5,396.5 Z"/></g>
<g><path style="opacity:1" fill="#fdfdfd" d="M 368.5,416.5 C 458.834,416.333 549.167,416.5 639.5,417C 669.474,423.313 681.307,441.48 675,471.5C 671.595,477.304 667.928,482.97 664,488.5C 619.761,532.739 575.928,576.572 532.5,620C 513.461,635.32 494.461,635.32 475.5,620C 432.099,576.599 388.266,532.766 344,488.5C 340.072,482.97 336.405,477.304 333,471.5C 326.933,441.431 338.766,423.098 368.5,416.5 Z"/></g>
<g><path style="opacity:0.999" fill="#1b0e61" d="M 405.5,472.5 C 470.999,471.335 536.665,471.168 602.5,472C 569.667,504.833 536.833,537.667 504,570.5C 471.299,537.632 438.465,504.965 405.5,472.5 Z"/></g>
<g><path style="opacity:1" fill="#514882" d="M 943.5,602.5 C 943.5,611.833 943.5,621.167 943.5,630.5C 935.024,680.819 906.357,713.652 857.5,729C 808.187,739.741 767.354,725.908 735,687.5C 734.316,686.216 734.483,685.049 735.5,684C 795.924,637.744 839.258,578.911 865.5,507.5C 898.011,518.504 921.177,539.837 935,571.5C 938.953,581.658 941.787,591.991 943.5,602.5 Z"/></g>
</svg>
