<?xml version="1.0" encoding="UTF-8"?>
<!DOCTYPE svg PUBLIC "-//W3C//DTD SVG 1.1//EN" "http://www.w3.org/Graphics/SVG/1.1/DTD/svg11.dtd">
<svg xmlns="http://www.w3.org/2000/svg" version="1.1" width="862px" height="724px" style="shape-rendering:geometricPrecision; text-rendering:geometricPrecision; image-rendering:optimizeQuality; fill-rule:evenodd; clip-rule:evenodd" xmlns:xlink="http://www.w3.org/1999/xlink">
<g><path style="opacity:1" fill="#e9d67d" d="M 338.5,-0.5 C 354.167,-0.5 369.833,-0.5 385.5,-0.5C 508.578,11.2581 603.744,68.5914 671,171.5C 731.913,276.118 740.913,385.118 698,498.5C 653.947,599.551 579.947,668.551 476,705.5C 446.371,714.926 416.205,720.926 385.5,723.5C 369.833,723.5 354.167,723.5 338.5,723.5C 213.912,711.655 118.079,653.322 51,548.5C 21.0353,497.776 3.86863,443.11 -0.5,384.5C -0.5,369.167 -0.5,353.833 -0.5,338.5C 9.60906,226.756 58.9424,136.923 147.5,69C 204.574,27.9179 268.24,4.75125 338.5,-0.5 Z"/></g>
<g><path style="opacity:1" fill="#fefefe" d="M 414.5,77.5 C 473.442,76.0227 519.608,99.356 553,147.5C 568.311,173.316 575.978,201.316 576,231.5C 629.727,248.228 659.727,284.562 666,340.5C 667.357,390.292 646.857,428.125 604.5,454C 588.408,463.031 571.075,468.031 552.5,469C 515.168,469.5 477.835,469.667 440.5,469.5C 440.5,449.167 440.5,428.833 440.5,408.5C 478.835,408.667 517.168,408.5 555.5,408C 582.268,402.903 599.101,387.07 606,360.5C 608.956,324.563 593.456,300.729 559.5,289C 544.395,286.016 529.562,282.182 515,277.5C 515.257,262.366 515.757,247.199 516.5,232C 514.644,181.595 489.311,150.262 440.5,138C 404.912,133.555 375.745,145.055 353,172.5C 342.041,190.959 330.874,209.293 319.5,227.5C 299.027,218.058 278.36,209.225 257.5,201C 205.925,190.388 165.758,206.888 137,250.5C 112.38,302.061 120.88,347.228 162.5,386C 178.152,398.781 196.152,406.114 216.5,408C 240.831,408.5 265.164,408.667 289.5,408.5C 289.5,428.833 289.5,449.167 289.5,469.5C 264.164,469.667 238.831,469.5 213.5,469C 136.378,457.209 87.5444,413.709 67,338.5C 54.4438,258.969 82.2771,198.469 150.5,157C 197.967,133.966 246.134,132.133 295,151.5C 323.09,107.872 362.923,83.205 414.5,77.5 Z"/></g>
<g><path style="opacity:1" fill="#e4d9a6" d="M 861.5,338.5 C 861.5,347.833 861.5,357.167 861.5,366.5C 853.369,413.473 827.036,445.64 782.5,463C 768.186,467.592 753.52,469.426 738.5,468.5C 758.867,390.561 756.867,313.227 732.5,236.5C 792.358,233.993 833.524,260.326 856,315.5C 858.3,323.194 860.134,330.86 861.5,338.5 Z"/></g>
<g><path style="opacity:1" fill="#fefefe" d="M 333.5,316.5 C 353.5,316.5 373.5,316.5 393.5,316.5C 393.333,390.167 393.5,463.834 394,537.5C 413.707,517.459 433.707,497.792 454,478.5C 468.518,491.684 482.351,505.518 495.5,520C 452.026,564.64 408.026,608.807 363.5,652.5C 319.014,608.514 274.68,564.347 230.5,520C 244.374,505.792 258.541,491.958 273,478.5C 293.257,497.755 313.257,517.422 333,537.5C 333.5,463.834 333.667,390.167 333.5,316.5 Z"/></g>
</svg>
