<?xml version="1.0" encoding="UTF-8"?>
<!DOCTYPE svg PUBLIC "-//W3C//DTD SVG 1.1//EN" "http://www.w3.org/Graphics/SVG/1.1/DTD/svg11.dtd">
<svg xmlns="http://www.w3.org/2000/svg" version="1.1" width="862px" height="724px" style="shape-rendering:geometricPrecision; text-rendering:geometricPrecision; image-rendering:optimizeQuality; fill-rule:evenodd; clip-rule:evenodd" xmlns:xlink="http://www.w3.org/1999/xlink">
<g><path style="opacity:1" fill="#6e1f61" d="M 475.5,-0.5 C 491.167,-0.5 506.833,-0.5 522.5,-0.5C 647.088,11.3447 742.921,69.6781 810,174.5C 839.965,225.224 857.131,279.89 861.5,338.5C 861.5,353.833 861.5,369.167 861.5,384.5C 851.391,496.244 802.058,586.077 713.5,654C 656.426,695.082 592.76,718.249 522.5,723.5C 506.833,723.5 491.167,723.5 475.5,723.5C 352.422,711.742 257.256,654.409 190,551.5C 129.087,446.882 120.087,337.882 163,224.5C 207.053,123.449 281.053,54.449 385,17.5C 414.629,8.07411 444.795,2.07411 475.5,-0.5 Z"/></g>
<g><path style="opacity:1" fill="#fefefe" d="M 572.5,398.5 C 607.833,397.833 643.167,397.167 678.5,396.5C 710.949,391.38 728.616,372.38 731.5,339.5C 729.936,311.085 715.602,292.252 688.5,283C 673.46,279.596 658.46,276.096 643.5,272.5C 644.603,254.855 645.103,237.188 645,219.5C 639.688,176.695 616.188,149.861 574.5,139C 539.071,134.308 510.238,145.808 488,173.5C 478.176,189.14 468.842,205.14 460,221.5C 459.311,222.357 458.478,223.023 457.5,223.5C 438.53,215.351 419.53,207.184 400.5,199C 356.496,188.225 319.996,200.058 291,234.5C 266.823,269.818 264.156,306.818 283,345.5C 297.42,369.957 318.254,386.124 345.5,394C 351.466,395.159 357.466,395.993 363.5,396.5C 385.5,397.167 407.5,397.833 429.5,398.5C 411.867,416.327 394.2,434.16 376.5,452C 367.936,453.607 359.27,453.94 350.5,453C 278.639,439.499 233.805,397.332 216,326.5C 206,255.028 230.833,199.528 290.5,160C 334.468,135.848 380.134,132.182 427.5,149C 430.126,149.995 432.793,150.328 435.5,150C 470.861,96.4963 520.527,74.1629 584.5,83C 650.483,98.6478 689.317,139.814 701,206.5C 701.942,213.806 702.442,221.14 702.5,228.5C 740.823,239.318 767.323,263.318 782,300.5C 798.123,358.488 781.623,404.322 732.5,438C 719.304,445.177 705.304,450.177 690.5,453C 669.5,453.667 648.5,453.667 627.5,453C 608.993,434.993 590.66,416.826 572.5,398.5 Z"/></g>
<g><path style="opacity:1" fill="#875780" d="M -0.5,384.5 C -0.5,375.167 -0.5,365.833 -0.5,356.5C 7.63091,309.527 33.9642,277.36 78.5,260C 92.8138,255.408 107.48,253.574 122.5,254.5C 102.133,332.439 104.133,409.773 128.5,486.5C 68.6424,489.007 27.4757,462.674 5,407.5C 2.69968,399.806 0.866349,392.14 -0.5,384.5 Z"/></g>
<g><path style="opacity:1" fill="#fefefe" d="M 500.5,385.5 C 542.965,427.465 585.299,469.632 627.5,512C 614.319,525.347 600.986,538.514 587.5,551.5C 568.5,532.833 549.5,514.167 530.5,495.5C 529.5,539.162 529.167,582.828 529.5,626.5C 510.5,626.5 491.5,626.5 472.5,626.5C 472.833,582.828 472.5,539.162 471.5,495.5C 452.5,514.167 433.5,532.833 414.5,551.5C 401.014,538.514 387.681,525.347 374.5,512C 416.701,469.965 458.701,427.799 500.5,385.5 Z"/></g>
<g><path style="opacity:0.813" fill="#9b6b93" d="M 363.5,396.5 C 385.843,396.167 408.177,396.5 430.5,397.5C 430.376,398.107 430.043,398.44 429.5,398.5C 407.5,397.833 385.5,397.167 363.5,396.5 Z"/></g>
<g><path style="opacity:0.814" fill="#9b6b93" d="M 678.5,396.5 C 643.167,397.167 607.833,397.833 572.5,398.5C 571.957,398.44 571.624,398.107 571.5,397.5C 607.16,396.5 642.827,396.167 678.5,396.5 Z"/></g>
</svg>
