<?xml version="1.0" encoding="UTF-8"?>
<!DOCTYPE svg PUBLIC "-//W3C//DTD SVG 1.1//EN" "http://www.w3.org/Graphics/SVG/1.1/DTD/svg11.dtd">
<svg xmlns="http://www.w3.org/2000/svg" version="1.1" width="862px" height="724px" style="shape-rendering:geometricPrecision; text-rendering:geometricPrecision; image-rendering:optimizeQuality; fill-rule:evenodd; clip-rule:evenodd" xmlns:xlink="http://www.w3.org/1999/xlink">
<g><path style="opacity:1" fill="#cb2e5d" d="M 475.5,-0.5 C 491.167,-0.5 506.833,-0.5 522.5,-0.5C 647.088,11.3447 742.921,69.6781 810,174.5C 839.965,225.224 857.131,279.89 861.5,338.5C 861.5,353.833 861.5,369.167 861.5,384.5C 851.391,496.244 802.058,586.077 713.5,654C 656.426,695.082 592.76,718.249 522.5,723.5C 506.833,723.5 491.167,723.5 475.5,723.5C 356.086,712.402 262.586,657.735 195,559.5C 135.341,463.548 121.341,361.215 153,252.5C 192.428,136.739 269.761,58.4055 385,17.5C 414.629,8.07411 444.795,2.07411 475.5,-0.5 Z"/></g>
<g><path style="opacity:0.998" fill="#fefefe" d="M 471.5,88.5 C 492.523,88.1738 513.523,88.6738 534.5,90C 568.099,98.266 587.933,119.433 594,153.5C 594.5,164.828 594.667,176.162 594.5,187.5C 629.835,187.333 665.168,187.5 700.5,188C 716.456,195.863 720.956,208.03 714,224.5C 709.486,231.006 703.319,234.84 695.5,236C 562.833,236.667 430.167,236.667 297.5,236C 279.943,231.8 273.11,220.967 277,203.5C 279.833,196 285,190.833 292.5,188C 327.832,187.5 363.165,187.333 398.5,187.5C 394.508,161.628 399.675,137.961 414,116.5C 429.252,98.9565 448.419,89.6232 471.5,88.5 Z"/></g>
<g><path style="opacity:1" fill="#cb305e" d="M 470.5,137.5 C 490.203,137.09 509.87,137.59 529.5,139C 537.319,142.464 542.486,148.297 545,156.5C 545.5,166.828 545.666,177.161 545.5,187.5C 512.833,187.5 480.167,187.5 447.5,187.5C 447.067,176.09 447.567,164.756 449,153.5C 453.565,144.406 460.731,139.073 470.5,137.5 Z"/></g>
<g><path style="opacity:1" fill="#cb6e8a" d="M -0.5,384.5 C -0.5,375.167 -0.5,365.833 -0.5,356.5C 7.63091,309.527 33.9642,277.36 78.5,260C 92.8138,255.408 107.48,253.574 122.5,254.5C 102.133,332.439 104.133,409.773 128.5,486.5C 68.6424,489.007 27.4757,462.674 5,407.5C 2.69968,399.806 0.866349,392.14 -0.5,384.5 Z"/></g>
<g><path style="opacity:1" fill="#fefdfd" d="M 345.5,260.5 C 359.23,260.418 368.397,266.752 373,279.5C 373.036,350.851 373.703,422.185 375,493.5C 380.833,513.668 394,525.835 414.5,530C 469.167,530.667 523.833,530.667 578.5,530C 603.878,524.289 617.378,508.456 619,482.5C 619.333,414.833 619.667,347.167 620,279.5C 624.579,266.597 633.746,260.431 647.5,261C 658.153,262.989 664.986,269.155 668,279.5C 668.667,350.167 668.667,420.833 668,491.5C 661.207,533.625 637.707,561.791 597.5,576C 591.911,577.418 586.244,578.418 580.5,579C 524.5,579.667 468.5,579.667 412.5,579C 375.917,573.747 349.417,554.58 333,521.5C 329.083,511.833 326.417,501.833 325,491.5C 324.333,420.833 324.333,350.167 325,279.5C 328.257,269.15 335.091,262.817 345.5,260.5 Z"/></g>
<g><path style="opacity:1" fill="#fefcfc" d="M 439.5,310.5 C 456.939,307.62 467.772,314.62 472,331.5C 472.667,374.167 472.667,416.833 472,459.5C 467.282,476.94 456.115,483.773 438.5,480C 430.402,476.314 425.236,470.147 423,461.5C 422.333,417.833 422.333,374.167 423,330.5C 425.441,321.233 430.941,314.566 439.5,310.5 Z"/></g>
<g><path style="opacity:1" fill="#fefcfc" d="M 538.5,310.5 C 554.925,307.957 565.425,314.624 570,330.5C 570.667,374.167 570.667,417.833 570,461.5C 563.259,479.952 550.759,485.452 532.5,478C 525.994,473.486 522.16,467.319 521,459.5C 520.333,416.833 520.333,374.167 521,331.5C 523.051,321.288 528.884,314.288 538.5,310.5 Z"/></g>
</svg>
