<?xml version="1.0" encoding="UTF-8"?>
<!DOCTYPE svg PUBLIC "-//W3C//DTD SVG 1.1//EN" "http://www.w3.org/Graphics/SVG/1.1/DTD/svg11.dtd">
<svg xmlns="http://www.w3.org/2000/svg" version="1.1" width="512px" height="512px" style="shape-rendering:geometricPrecision; text-rendering:geometricPrecision; image-rendering:optimizeQuality; fill-rule:evenodd; clip-rule:evenodd" xmlns:xlink="http://www.w3.org/1999/xlink">
<g><path style="opacity:0.73" fill="#6c6c6c" d="M 232.5,1.5 C 321.505,-3.57343 395.005,27.4266 453,94.5C 508.922,167.797 523.589,248.797 497,337.5C 462.84,429.654 397.674,486.154 301.5,507C 203.728,521.326 122.561,491.493 58,417.5C 4.44214,347.713 -11.2245,270.046 11,184.5C 34.3257,109.172 81.8257,55.0053 153.5,22C 178.936,11.2254 205.269,4.39208 232.5,1.5 Z"/></g>
<g><path style="opacity:1" fill="#fefefe" d="M 235.5,3.5 C 323.177,-0.132726 395.344,31.2006 452,97.5C 505.431,168 520.098,246 496,331.5C 467.671,415.162 411.505,470.662 327.5,498C 235.788,522.402 154.454,503.402 83.5,441C 23.3293,381.843 -2.8374,310.009 5,225.5C 18.4859,138.289 63.6525,73.4556 140.5,31C 170.709,16.3358 202.375,7.16909 235.5,3.5 Z"/></g>
<g><path style="opacity:1" fill="#6e6e6e" d="M 369.5,77.5 C 365.5,77.5 361.5,77.5 357.5,77.5C 359.048,76.2057 361.048,75.5391 363.5,75.5C 365.952,75.5391 367.952,76.2057 369.5,77.5 Z"/></g>
<g><path style="opacity:1" fill="#333333" d="M 357.5,77.5 C 361.5,77.5 365.5,77.5 369.5,77.5C 371.833,77.5 374.167,77.5 376.5,77.5C 378.282,79.357 380.615,80.357 383.5,80.5C 404.176,88.2383 415.51,103.238 417.5,125.5C 417.5,129.167 417.5,132.833 417.5,136.5C 417.417,142.034 416.417,147.367 414.5,152.5C 410.788,161.717 405.622,170.05 399,177.5C 326.041,250.293 253.207,323.293 180.5,396.5C 172.297,403.971 162.63,407.971 151.5,408.5C 139.5,408.5 127.5,408.5 115.5,408.5C 109.37,408.013 103.704,406.18 98.5,403C 94.3954,399.359 90.8954,395.192 88,390.5C 86.8924,386.914 86.3924,383.247 86.5,379.5C 86.5,367.5 86.5,355.5 86.5,343.5C 86.2529,340.061 86.5863,336.728 87.5,333.5C 88.4013,332.71 89.0679,331.71 89.5,330.5C 89.366,328.708 89.6993,327.042 90.5,325.5C 91.9063,325.027 92.573,324.027 92.5,322.5C 96.0729,317.73 99.9062,313.063 104,308.5C 151.491,262.009 198.324,214.843 244.5,167C 245.527,166.487 246.527,165.987 247.5,165.5C 250.5,163.167 253.167,160.5 255.5,157.5C 255.369,156.761 255.536,156.094 256,155.5C 259.417,152.238 262.917,149.238 266.5,146.5C 269.5,144.167 272.167,141.5 274.5,138.5C 288.606,122.892 303.273,107.726 318.5,93C 323.206,90.1909 327.872,87.1909 332.5,84C 340.109,79.2823 348.442,77.1156 357.5,77.5 Z"/></g>
<g><path style="opacity:1" fill="#808080" d="M 376.5,77.5 C 379.206,77.8872 381.539,78.8872 383.5,80.5C 380.615,80.357 378.282,79.357 376.5,77.5 Z"/></g>
<g><path style="opacity:1" fill="#fbfbfb" d="M 354.5,109.5 C 380.832,107.994 390.165,119.827 382.5,145C 377.154,152.158 371.154,158.658 364.5,164.5C 352.848,153.682 341.348,142.682 330,131.5C 329.833,130.833 329.667,130.167 329.5,129.5C 332.155,125.68 335.155,122.18 338.5,119C 344.066,115.87 349.4,112.704 354.5,109.5 Z"/></g>
<g><path style="opacity:1" fill="#7d7d7d" d="M 417.5,125.5 C 418.787,126.871 419.453,128.705 419.5,131C 419.494,133.033 419.161,134.866 418.5,136.5C 418.167,136.5 417.833,136.5 417.5,136.5C 417.5,132.833 417.5,129.167 417.5,125.5 Z"/></g>
<g><path style="opacity:1" fill="#606060" d="M 274.5,138.5 C 272.167,141.5 269.5,144.167 266.5,146.5C 268.167,142.833 270.833,140.167 274.5,138.5 Z"/></g>
<g><path style="opacity:1" fill="#bebebe" d="M 417.5,136.5 C 417.833,136.5 418.167,136.5 418.5,136.5C 418.82,139.898 418.487,143.232 417.5,146.5C 417.036,148.975 416.036,150.975 414.5,152.5C 416.417,147.367 417.417,142.034 417.5,136.5 Z"/></g>
<g><path style="opacity:1" fill="#e9e9e9" d="M 151.5,375.5 C 140.833,375.5 130.167,375.5 119.5,375.5C 119.209,363.783 119.542,352.116 120.5,340.5C 181.167,277.998 242.5,215.831 304.5,154C 305.167,153.333 305.833,153.333 306.5,154C 316.333,163.833 326.167,173.667 336,183.5C 336.81,185.306 337.976,186.806 339.5,188C 338.744,190.091 337.577,191.924 336,193.5C 276.518,252.815 217.351,312.149 158.5,371.5C 156.6,373.616 154.267,374.949 151.5,375.5 Z"/></g>
<g><path style="opacity:1" fill="#636363" d="M 255.5,157.5 C 253.167,160.5 250.5,163.167 247.5,165.5C 249.167,161.833 251.833,159.167 255.5,157.5 Z"/></g>
<g><path style="opacity:1" fill="#939393" d="M 92.5,322.5 C 92.573,324.027 91.9063,325.027 90.5,325.5C 90.427,323.973 91.0937,322.973 92.5,322.5 Z"/></g>
<g><path style="opacity:1" fill="#919191" d="M 89.5,330.5 C 89.0679,331.71 88.4013,332.71 87.5,333.5C 87.2852,331.821 87.9519,330.821 89.5,330.5 Z"/></g>
<g><path style="opacity:1" fill="#707070" d="M 86.5,343.5 C 86.5,355.5 86.5,367.5 86.5,379.5C 85.1707,373.872 84.504,367.872 84.5,361.5C 84.504,355.128 85.1707,349.128 86.5,343.5 Z"/></g>
<g><path style="opacity:1" fill="#b2b2b2" d="M 120.5,340.5 C 119.542,352.116 119.209,363.783 119.5,375.5C 130.167,375.5 140.833,375.5 151.5,375.5C 140.679,376.495 129.679,376.828 118.5,376.5C 118.333,364.829 118.5,353.162 119,341.5C 119.383,340.944 119.883,340.611 120.5,340.5 Z"/></g>
<g><path style="opacity:1" fill="#717171" d="M 115.5,408.5 C 127.5,408.5 139.5,408.5 151.5,408.5C 145.872,409.829 139.872,410.496 133.5,410.5C 127.128,410.496 121.128,409.829 115.5,408.5 Z"/></g>
</svg>
