<?xml version="1.0" encoding="UTF-8"?>
<!DOCTYPE svg PUBLIC "-//W3C//DTD SVG 1.1//EN" "http://www.w3.org/Graphics/SVG/1.1/DTD/svg11.dtd">
<svg xmlns="http://www.w3.org/2000/svg" version="1.1" width="944px" height="736px" style="shape-rendering:geometricPrecision; text-rendering:geometricPrecision; image-rendering:optimizeQuality; fill-rule:evenodd; clip-rule:evenodd" xmlns:xlink="http://www.w3.org/1999/xlink">
<g><path style="opacity:1" fill="#a3cbc6" d="M 806.5,-0.5 C 815.833,-0.5 825.167,-0.5 834.5,-0.5C 884.819,7.97649 917.652,36.6432 933,85.5C 944.436,141.231 926.602,184.731 879.5,216C 873.621,219.106 867.621,221.94 861.5,224.5C 830.694,154.686 784.36,97.3528 722.5,52.5C 742.818,22.6734 770.818,5.00676 806.5,-0.5 Z"/></g>
<g><path style="opacity:1" fill="#6cd2c8" d="M 522.5,735.5 C 506.833,735.5 491.167,735.5 475.5,735.5C 360.254,725.146 268.754,673.479 201,580.5C 132.58,476.204 118.58,364.871 159,246.5C 198.288,146.879 267.455,76.7122 366.5,36C 481.028,-5.34644 590.361,5.32023 694.5,68C 794.725,135.213 850.225,229.379 861,350.5C 865.891,462.484 828.724,557.651 749.5,636C 685.511,695.317 609.844,728.484 522.5,735.5 Z"/></g>
<g><path style="opacity:1" fill="#fefefe" d="M 633.5,122.5 C 642.191,122.085 649.857,124.585 656.5,130C 683.667,157.167 710.833,184.333 738,211.5C 745.796,222.059 746.463,233.059 740,244.5C 711.281,273.43 682.447,302.264 653.5,331C 639.875,338.443 627.709,336.609 617,325.5C 609.463,313.941 609.796,302.607 618,291.5C 629.681,279.986 641.181,268.319 652.5,256.5C 626.84,255.334 601.173,255.167 575.5,256C 556.144,258.179 539.477,266.012 525.5,279.5C 508.186,300.135 491.353,321.135 475,342.5C 467.766,350.404 459.933,357.571 451.5,364C 462.228,371.722 472.061,380.556 481,390.5C 494.978,409.427 510.145,427.427 526.5,444.5C 544.038,458.409 564.038,466.575 586.5,469C 608.833,469.667 631.167,469.667 653.5,469C 641.667,457.167 629.833,445.333 618,433.5C 608.219,419.096 609.719,405.93 622.5,394C 636.869,386.322 649.536,388.489 660.5,400.5C 687.097,427.053 713.597,453.72 740,480.5C 745.533,490.015 745.866,499.681 741,509.5C 711.833,540 682,569.833 651.5,599C 635.715,605.434 623.215,601.601 614,587.5C 610.269,578.199 610.936,569.199 616,560.5C 628.5,548 641,535.5 653.5,523C 630.167,522.667 606.833,522.333 583.5,522C 540.842,518.253 505.008,500.753 476,469.5C 462.5,452.667 449,435.833 435.5,419C 415.111,400.423 391.111,390.423 363.5,389C 319.167,388.667 274.833,388.333 230.5,388C 216.244,382.329 210.077,371.829 212,356.5C 215.101,347.066 221.268,340.566 230.5,337C 278.833,336.667 327.167,336.333 375.5,336C 398.427,335.117 417.593,326.284 433,309.5C 447.241,292.015 461.241,274.349 475,256.5C 500.02,224.945 532.52,207.112 572.5,203C 599.5,202.667 626.5,202.333 653.5,202C 641.333,189.833 629.167,177.667 617,165.5C 608.825,152.433 609.992,140.266 620.5,129C 624.407,125.792 628.74,123.625 633.5,122.5 Z"/></g>
<g><path style="opacity:1" fill="#a3cbc6" d="M -0.5,396.5 C -0.5,387.167 -0.5,377.833 -0.5,368.5C 7.63091,321.527 33.9642,289.36 78.5,272C 92.8138,267.408 107.48,265.574 122.5,266.5C 102.133,344.439 104.133,421.773 128.5,498.5C 68.6424,501.007 27.4757,474.674 5,419.5C 2.69968,411.806 0.866349,404.14 -0.5,396.5 Z"/></g>
<g><path style="opacity:1" fill="#a3cbc6" d="M 943.5,602.5 C 943.5,611.833 943.5,621.167 943.5,630.5C 935.024,680.819 906.357,713.652 857.5,729C 808.187,739.741 767.354,725.908 735,687.5C 734.316,686.216 734.483,685.049 735.5,684C 795.924,637.744 839.258,578.911 865.5,507.5C 898.011,518.504 921.177,539.837 935,571.5C 938.953,581.658 941.787,591.991 943.5,602.5 Z"/></g>
</svg>
