<?xml version="1.0" encoding="UTF-8"?>
<!DOCTYPE svg PUBLIC "-//W3C//DTD SVG 1.1//EN" "http://www.w3.org/Graphics/SVG/1.1/DTD/svg11.dtd">
<svg xmlns="http://www.w3.org/2000/svg" version="1.1" width="862px" height="724px" style="shape-rendering:geometricPrecision; text-rendering:geometricPrecision; image-rendering:optimizeQuality; fill-rule:evenodd; clip-rule:evenodd" xmlns:xlink="http://www.w3.org/1999/xlink">
<g><path style="opacity:1" fill="#ead77d" d="M 338.5,-0.5 C 354.167,-0.5 369.833,-0.5 385.5,-0.5C 508.578,11.2581 603.744,68.5914 671,171.5C 731.913,276.118 740.913,385.118 698,498.5C 653.947,599.551 579.947,668.551 476,705.5C 446.371,714.926 416.205,720.926 385.5,723.5C 369.833,723.5 354.167,723.5 338.5,723.5C 213.912,711.655 118.079,653.322 51,548.5C 21.0353,497.776 3.86863,443.11 -0.5,384.5C -0.5,369.167 -0.5,353.833 -0.5,338.5C 9.60906,226.756 58.9424,136.923 147.5,69C 204.574,27.9179 268.24,4.75125 338.5,-0.5 Z"/></g>
<g><path style="opacity:0.995" fill="#fefefe" d="M 362.5,54.5 C 371.523,54.045 377.356,58.045 380,66.5C 380.333,174.5 380.667,282.5 381,390.5C 402.597,367.781 424.764,345.614 447.5,324C 459.509,320.167 466.842,324.333 469.5,336.5C 469.378,339.698 468.545,342.698 467,345.5C 436.167,376.333 405.333,407.167 374.5,438C 368.5,442.667 362.5,442.667 356.5,438C 325.667,407.167 294.833,376.333 264,345.5C 258.788,332.923 262.788,325.256 276,322.5C 278.591,322.565 281.091,323.065 283.5,324C 306.194,345.605 328.36,367.772 350,390.5C 350.333,282.5 350.667,174.5 351,66.5C 352.513,60.1819 356.346,56.1819 362.5,54.5 Z"/></g>
<g><path style="opacity:1" fill="#fefefd" d="M 191.5,233.5 C 216.502,233.333 241.502,233.5 266.5,234C 276.78,239.514 278.947,247.348 273,257.5C 270.749,259.377 268.249,260.877 265.5,262C 243.167,262.333 220.833,262.667 198.5,263C 176.776,266.058 163.276,278.224 158,299.5C 157.333,354.5 157.333,409.5 158,464.5C 162.527,483.693 174.36,495.527 193.5,500C 308.167,500.667 422.833,500.667 537.5,500C 556.667,495.5 568.5,483.667 573,464.5C 573.98,407.796 573.646,351.13 572,294.5C 565.309,275.802 552.142,265.302 532.5,263C 510.167,262.667 487.833,262.333 465.5,262C 456.258,258.014 453.091,251.181 456,241.5C 457.892,237.942 460.725,235.442 464.5,234C 489.5,233.333 514.5,233.333 539.5,234C 567.993,238.995 587.827,254.829 599,281.5C 601.125,287.668 602.459,294.001 603,300.5C 603.667,354.5 603.667,408.5 603,462.5C 597.036,502.131 574.203,524.631 534.5,530C 421.833,530.667 309.167,530.667 196.5,530C 157.255,524.755 134.421,502.588 128,463.5C 127.333,409.167 127.333,354.833 128,300.5C 133.813,263.496 154.979,241.162 191.5,233.5 Z"/></g>
<g><path style="opacity:1" fill="#e4d9a6" d="M 861.5,338.5 C 861.5,347.833 861.5,357.167 861.5,366.5C 853.369,413.473 827.036,445.64 782.5,463C 768.186,467.592 753.52,469.426 738.5,468.5C 758.867,390.561 756.867,313.227 732.5,236.5C 792.358,233.993 833.524,260.326 856,315.5C 858.3,323.194 860.134,330.86 861.5,338.5 Z"/></g>
</svg>
