<?xml version="1.0" encoding="UTF-8"?>
<!DOCTYPE svg PUBLIC "-//W3C//DTD SVG 1.1//EN" "http://www.w3.org/Graphics/SVG/1.1/DTD/svg11.dtd">
<svg xmlns="http://www.w3.org/2000/svg" version="1.1" width="947px" height="738px" style="shape-rendering:geometricPrecision; text-rendering:geometricPrecision; image-rendering:optimizeQuality; fill-rule:evenodd; clip-rule:evenodd" xmlns:xlink="http://www.w3.org/1999/xlink">
<g><path style="opacity:0.994" fill="#accbd5" d="M 109.5,-0.5 C 118.833,-0.5 128.167,-0.5 137.5,-0.5C 173.596,5.25916 201.929,23.2592 222.5,53.5C 160.965,97.8687 115.132,154.869 85,224.5C 84.3109,225.357 83.4776,226.023 82.5,226.5C 39.6281,208.458 14.4614,176.458 7,130.5C 3.80839,69.6911 30.3084,27.8577 86.5,5C 94.1937,2.69968 101.86,0.866349 109.5,-0.5 Z"/></g>
<g><path style="opacity:0.999" fill="#90d5ec" d="M 457.5,737.5 C 449.167,737.5 440.833,737.5 432.5,737.5C 306.396,729.054 208.229,672.721 138,568.5C 80.6598,474.113 67.3265,373.779 98,267.5C 125.841,183.269 176.674,116.769 250.5,68C 356.707,4.48047 467.707,-5.1862 583.5,39C 699.749,90.6355 772.249,178.469 801,302.5C 822.37,425.347 791.37,532.68 708,624.5C 639.307,694.59 555.807,732.257 457.5,737.5 Z"/></g>
<g><path style="opacity:1" fill="#fefefe" d="M 235.5,157.5 C 271.855,157.075 308.189,157.575 344.5,159C 371.984,163.409 395.651,175.242 415.5,194.5C 457.167,236.333 498.833,278.167 540.5,320C 548.818,325.994 557.818,330.661 567.5,334C 588.129,335.595 608.796,335.928 629.5,335C 617.971,323.137 606.138,311.637 594,300.5C 581.639,283.41 583.139,267.576 598.5,253C 614.138,243.478 628.805,244.811 642.5,257C 679.419,293.919 716.419,330.919 753.5,368C 714.417,407.751 674.75,446.751 634.5,485C 618.208,492.675 604.042,489.842 592,476.5C 582.874,462.32 583.54,448.654 594,435.5C 606.138,424.363 617.971,412.863 629.5,401C 607.479,400.852 585.479,400.185 563.5,399C 539.144,394.653 517.477,384.653 498.5,369C 454.5,325 410.5,281 366.5,237C 357.536,229.45 347.203,224.784 335.5,223C 302.168,222.5 268.835,222.333 235.5,222.5C 235.5,200.833 235.5,179.167 235.5,157.5 Z"/></g>
<g><path style="opacity:0.994" fill="#accbd5" d="M 946.5,375.5 C 946.5,380.833 946.5,386.167 946.5,391.5C 939.37,446.225 909.37,481.725 856.5,498C 842.935,501.369 829.268,502.036 815.5,500C 814.941,499.275 814.608,498.442 814.5,497.5C 839.205,421.655 840.871,345.321 819.5,268.5C 819.977,267.522 820.643,266.689 821.5,266C 868.511,265.085 904.678,284.251 930,323.5C 939.231,339.792 944.731,357.125 946.5,375.5 Z"/></g>
<g><path style="opacity:1" fill="#fefefe" d="M 469.5,395.5 C 479.433,402.809 489.766,409.643 500.5,416C 510.103,420.306 519.769,424.306 529.5,428C 487.473,469.361 445.473,510.694 403.5,552C 385.888,564.967 366.221,573.3 344.5,577C 308.189,578.425 271.855,578.925 235.5,578.5C 235.5,556.833 235.5,535.167 235.5,513.5C 268.835,513.667 302.168,513.5 335.5,513C 347.683,511.13 358.349,506.13 367.5,498C 401.701,463.965 435.701,429.799 469.5,395.5 Z"/></g>
<g><path style="opacity:0.994" fill="#accbd5" d="M -0.5,631.5 C -0.5,622.167 -0.5,612.833 -0.5,603.5C 6.6989,559.297 30.6989,527.797 71.5,509C 73.7538,507.85 76.0871,507.516 78.5,508C 105.964,579.957 149.964,639.624 210.5,687C 183.241,722.287 147.241,737.953 102.5,734C 58.0725,727.208 26.5725,703.374 8,662.5C 4.04681,652.342 1.21348,642.009 -0.5,631.5 Z"/></g>
</svg>
