<?xml version="1.0" encoding="UTF-8"?>
<!DOCTYPE svg PUBLIC "-//W3C//DTD SVG 1.1//EN" "http://www.w3.org/Graphics/SVG/1.1/DTD/svg11.dtd">
<svg xmlns="http://www.w3.org/2000/svg" version="1.1" width="1001px" height="724px" style="shape-rendering:geometricPrecision; text-rendering:geometricPrecision; image-rendering:optimizeQuality; fill-rule:evenodd; clip-rule:evenodd" xmlns:xlink="http://www.w3.org/1999/xlink">
<g><path style="opacity:1" fill="#6cd1c7" d="M 475.5,-0.5 C 491.167,-0.5 506.833,-0.5 522.5,-0.5C 644.235,10.0916 739.068,65.7582 807,166.5C 870.588,272.217 880.588,382.883 837,498.5C 791.219,603.611 713.719,673.777 604.5,709C 577.495,716.555 550.162,721.388 522.5,723.5C 506.833,723.5 491.167,723.5 475.5,723.5C 356.086,712.402 262.586,657.735 195,559.5C 135.341,463.548 121.341,361.215 153,252.5C 192.428,136.739 269.761,58.4055 385,17.5C 414.629,8.07411 444.795,2.07411 475.5,-0.5 Z"/></g>
<g><path style="opacity:1" fill="#fefefe" d="M 405.5,91.5 C 468.833,91.5 532.167,91.5 595.5,91.5C 595.333,112.836 595.5,134.169 596,155.5C 606.693,161.009 617.026,167.009 627,173.5C 644.681,163.739 662.181,153.573 679.5,143C 680.5,142.333 681.5,142.333 682.5,143C 714.359,197.055 745.693,251.388 776.5,306C 758.9,317.141 740.9,327.808 722.5,338C 721.978,338.561 721.645,339.228 721.5,340C 722.631,351.52 722.798,363.02 722,374.5C 740.453,384.971 758.619,395.805 776.5,407C 745.665,461.676 714.332,516.009 682.5,570C 681.5,570.667 680.5,570.667 679.5,570C 662.181,559.427 644.681,549.261 627,539.5C 617.026,545.991 606.693,551.991 596,557.5C 595.5,578.831 595.333,600.164 595.5,621.5C 532.167,621.5 468.833,621.5 405.5,621.5C 405.667,600.164 405.5,578.831 405,557.5C 394.294,552.052 383.96,546.052 374,539.5C 356.337,549.253 338.837,559.419 321.5,570C 320.5,570.667 319.5,570.667 318.5,570C 286.816,515.625 255.149,461.292 223.5,407C 241.651,396.089 259.984,385.422 278.5,375C 279.022,374.439 279.355,373.772 279.5,373C 278.369,361.48 278.202,349.98 279,338.5C 260.399,327.785 241.899,316.952 223.5,306C 255.134,251.687 286.801,197.353 318.5,143C 319.5,142.333 320.5,142.333 321.5,143C 338.869,153.594 356.369,163.761 374,173.5C 383.96,166.948 394.294,160.948 405,155.5C 405.5,134.169 405.667,112.836 405.5,91.5 Z"/></g>
<g><path style="opacity:0.843" fill="#9ad8d2" d="M 543.5,192.5 C 542.504,176.675 542.17,160.675 542.5,144.5C 514.5,144.5 486.5,144.5 458.5,144.5C 458.83,160.675 458.496,176.675 457.5,192.5C 457.5,176.167 457.5,159.833 457.5,143.5C 486.167,143.5 514.833,143.5 543.5,143.5C 543.5,159.833 543.5,176.167 543.5,192.5 Z"/></g>
<g><path style="opacity:1" fill="#6cd2c8" d="M 543.5,192.5 C 573.708,200.269 599.708,215.269 621.5,237.5C 635.167,229.5 648.833,221.5 662.5,213.5C 677.031,237.539 691.365,261.873 705.5,286.5C 692.9,294.808 679.9,302.642 666.5,310C 665.426,310.739 664.759,311.739 664.5,313C 669.337,331.527 671.17,350.361 670,369.5C 668.947,380.346 667.281,391.013 665,401.5C 678.652,409.735 692.152,418.068 705.5,426.5C 691.378,451.095 677.045,475.428 662.5,499.5C 648.833,491.5 635.167,483.5 621.5,475.5C 599.931,498.045 573.931,513.045 543.5,520.5C 542.504,536.325 542.17,552.325 542.5,568.5C 514.5,568.5 486.5,568.5 458.5,568.5C 458.83,552.325 458.496,536.325 457.5,520.5C 427.027,512.979 401.027,497.979 379.5,475.5C 365.75,484.154 351.75,491.987 337.5,499C 323.654,474.816 309.654,450.649 295.5,426.5C 308.132,418.178 321.132,410.345 334.5,403C 335.357,402.311 336.023,401.478 336.5,400.5C 331.523,381.823 329.69,362.823 331,343.5C 332.053,332.654 333.719,321.987 336,311.5C 323.249,303.874 310.415,296.374 297.5,289C 296.643,288.311 295.977,287.478 295.5,286.5C 309.633,261.879 323.966,237.545 338.5,213.5C 352.147,221.468 365.813,229.468 379.5,237.5C 401.037,215.005 427.037,200.005 457.5,192.5C 458.496,176.675 458.83,160.675 458.5,144.5C 486.5,144.5 514.5,144.5 542.5,144.5C 542.17,160.675 542.504,176.675 543.5,192.5 Z"/></g>
<g><path style="opacity:1" fill="#fefefe" d="M 492.5,250.5 C 542.456,250.211 577.956,272.544 599,317.5C 614.011,362.954 604.511,402.454 570.5,436C 533.487,465.052 493.487,469.718 450.5,450C 406.9,423.268 389.066,384.435 397,333.5C 410.808,284.845 442.642,257.178 492.5,250.5 Z"/></g>
<g><path style="opacity:1" fill="#accdca" d="M -0.5,384.5 C -0.5,375.167 -0.5,365.833 -0.5,356.5C 7.63091,309.527 33.9642,277.36 78.5,260C 92.8138,255.408 107.48,253.574 122.5,254.5C 102.133,332.439 104.133,409.773 128.5,486.5C 68.6424,489.007 27.4757,462.674 5,407.5C 2.69968,399.806 0.866349,392.14 -0.5,384.5 Z"/></g>
<g><path style="opacity:1" fill="#accdca" d="M 1000.5,356.5 C 1000.5,365.833 1000.5,375.167 1000.5,384.5C 992.024,434.819 963.357,467.652 914.5,483C 900.343,486.099 886.009,487.266 871.5,486.5C 895.867,409.773 897.867,332.439 877.5,254.5C 924.183,253.421 960.017,272.421 985,311.5C 993.085,325.632 998.252,340.632 1000.5,356.5 Z"/></g>
<g><path style="opacity:1" fill="#6cd2c8" d="M 489.5,303.5 C 513.761,300.637 532.761,309.137 546.5,329C 560.661,360.03 553.661,385.03 525.5,404C 500.051,415.196 477.884,410.696 459,390.5C 445.589,371.131 443.923,350.797 454,329.5C 462.669,316.273 474.502,307.607 489.5,303.5 Z"/></g>
<g><path style="opacity:0.843" fill="#9ad8d2" d="M 457.5,520.5 C 458.496,536.325 458.83,552.325 458.5,568.5C 486.5,568.5 514.5,568.5 542.5,568.5C 542.17,552.325 542.504,536.325 543.5,520.5C 543.5,536.833 543.5,553.167 543.5,569.5C 514.833,569.5 486.167,569.5 457.5,569.5C 457.5,553.167 457.5,536.833 457.5,520.5 Z"/></g>
</svg>
