<?xml version="1.0" encoding="UTF-8"?>
<!DOCTYPE svg PUBLIC "-//W3C//DTD SVG 1.1//EN" "http://www.w3.org/Graphics/SVG/1.1/DTD/svg11.dtd">
<svg xmlns="http://www.w3.org/2000/svg" version="1.1" width="1001px" height="724px" style="shape-rendering:geometricPrecision; text-rendering:geometricPrecision; image-rendering:optimizeQuality; fill-rule:evenodd; clip-rule:evenodd" xmlns:xlink="http://www.w3.org/1999/xlink">
<g><path style="opacity:1" fill="#1b0e61" d="M 475.5,-0.5 C 491.167,-0.5 506.833,-0.5 522.5,-0.5C 644.235,10.0916 739.068,65.7582 807,166.5C 870.588,272.217 880.588,382.883 837,498.5C 791.219,603.611 713.719,673.777 604.5,709C 577.495,716.555 550.162,721.388 522.5,723.5C 506.833,723.5 491.167,723.5 475.5,723.5C 356.086,712.402 262.586,657.735 195,559.5C 135.341,463.548 121.341,361.215 153,252.5C 192.428,136.739 269.761,58.4055 385,17.5C 414.629,8.07411 444.795,2.07411 475.5,-0.5 Z"/></g>
<g><path style="opacity:1" fill="#fefefe" d="M 630.5,242.5 C 631.043,242.44 631.376,242.107 631.5,241.5C 556.001,240.168 480.668,240.168 405.5,241.5C 353.495,248.668 319.662,277.335 304,327.5C 303.256,332.552 302.256,337.552 301,342.5C 300.5,356.829 300.333,371.163 300.5,385.5C 281.167,385.5 261.833,385.5 242.5,385.5C 236.645,328.488 252.478,278.822 290,236.5C 321.45,204.528 359.617,186.694 404.5,183C 480.167,182.667 555.833,182.333 631.5,182C 613.986,164.653 596.653,147.153 579.5,129.5C 592.319,116.181 605.319,103.014 618.5,90C 619.5,89.3333 620.5,89.3333 621.5,90C 662.207,130.373 702.54,171.04 742.5,212C 702.36,253.307 661.693,294.14 620.5,334.5C 606.681,321.181 593.014,307.681 579.5,294C 596.702,276.965 613.702,259.799 630.5,242.5 Z"/></g>
<g><path style="opacity:0.855" fill="#7a72a3" d="M 405.5,241.5 C 480.668,240.168 556.001,240.168 631.5,241.5C 631.376,242.107 631.043,242.44 630.5,242.5C 555.669,241.501 480.669,241.167 405.5,241.5 Z"/></g>
<g><path style="opacity:1" fill="#504882" d="M -0.5,384.5 C -0.5,375.167 -0.5,365.833 -0.5,356.5C 7.63091,309.527 33.9642,277.36 78.5,260C 92.8138,255.408 107.48,253.574 122.5,254.5C 102.133,332.439 104.133,409.773 128.5,486.5C 68.6424,489.007 27.4757,462.674 5,407.5C 2.69968,399.806 0.866349,392.14 -0.5,384.5 Z"/></g>
<g><path style="opacity:1" fill="#504882" d="M 1000.5,356.5 C 1000.5,365.833 1000.5,375.167 1000.5,384.5C 992.024,434.819 963.357,467.652 914.5,483C 900.343,486.099 886.009,487.266 871.5,486.5C 895.867,409.773 897.867,332.439 877.5,254.5C 924.183,253.421 960.017,272.421 985,311.5C 993.085,325.632 998.252,340.632 1000.5,356.5 Z"/></g>
<g><path style="opacity:1" fill="#fefefe" d="M 377.5,471.5 C 376.957,471.56 376.624,471.893 376.5,472.5C 451.999,473.832 527.332,473.832 602.5,472.5C 654.958,465.048 688.791,436.048 704,385.5C 705,379.833 706,374.167 707,368.5C 707.5,355.171 707.667,341.837 707.5,328.5C 726.833,328.5 746.167,328.5 765.5,328.5C 772.184,397.577 748.851,453.743 695.5,497C 667.879,517.211 636.879,528.544 602.5,531C 527.167,531.333 451.833,531.667 376.5,532C 394.014,549.347 411.347,566.847 428.5,584.5C 415.167,598.5 401.5,612.167 387.5,625.5C 346.64,584.474 305.974,543.307 265.5,502C 305.64,460.693 346.307,419.86 387.5,379.5C 401.319,392.819 414.986,406.319 428.5,420C 411.298,437.035 394.298,454.201 377.5,471.5 Z"/></g>
<g><path style="opacity:0.855" fill="#7a72a3" d="M 377.5,471.5 C 452.331,472.499 527.331,472.833 602.5,472.5C 527.332,473.832 451.999,473.832 376.5,472.5C 376.624,471.893 376.957,471.56 377.5,471.5 Z"/></g>
</svg>
