<?xml version="1.0" encoding="UTF-8"?>
<!DOCTYPE svg PUBLIC "-//W3C//DTD SVG 1.1//EN" "http://www.w3.org/Graphics/SVG/1.1/DTD/svg11.dtd">
<svg xmlns="http://www.w3.org/2000/svg" version="1.1" width="862px" height="724px" style="shape-rendering:geometricPrecision; text-rendering:geometricPrecision; image-rendering:optimizeQuality; fill-rule:evenodd; clip-rule:evenodd" xmlns:xlink="http://www.w3.org/1999/xlink">
<g><path style="opacity:1" fill="#6e1f61" d="M 475.5,-0.5 C 491.167,-0.5 506.833,-0.5 522.5,-0.5C 647.088,11.3447 742.921,69.6781 810,174.5C 839.965,225.224 857.131,279.89 861.5,338.5C 861.5,353.833 861.5,369.167 861.5,384.5C 851.391,496.244 802.058,586.077 713.5,654C 656.426,695.082 592.76,718.249 522.5,723.5C 506.833,723.5 491.167,723.5 475.5,723.5C 352.422,711.742 257.256,654.409 190,551.5C 129.087,446.882 120.087,337.882 163,224.5C 207.053,123.449 281.053,54.449 385,17.5C 414.629,8.07411 444.795,2.07411 475.5,-0.5 Z"/></g>
<g><path style="opacity:1" fill="#fdfdfd" d="M 479.5,120.5 C 532.308,119.031 584.641,123.198 636.5,133C 659.211,137.195 680.211,145.528 699.5,158C 706.419,163.677 710.919,170.843 713,179.5C 713.667,287.167 713.667,394.833 713,502.5C 710.247,512.828 704.414,520.995 695.5,527C 678.738,536.926 660.738,543.926 641.5,548C 558.145,563.958 474.478,565.625 390.5,553C 363.375,549.472 337.708,541.472 313.5,529C 302.871,523.045 296.037,514.212 293,502.5C 292.333,394.833 292.333,287.167 293,179.5C 293.91,174.349 295.91,169.682 299,165.5C 304.188,159.832 310.021,154.998 316.5,151C 341.906,139.312 368.572,131.645 396.5,128C 424.189,124.09 451.856,121.59 479.5,120.5 Z"/></g>
<g><path style="opacity:1" fill="#6e1f61" d="M 349.5,300.5 C 349.44,299.957 349.107,299.624 348.5,299.5C 347.176,310.993 347.176,322.326 348.5,333.5C 407.737,348.757 468.07,354.924 529.5,352C 573.486,350.521 616.819,344.521 659.5,334C 666.531,331.38 673.531,328.88 680.5,326.5C 680.667,348.836 680.5,371.169 680,393.5C 676.09,397.208 671.59,400.042 666.5,402C 638.376,412.159 609.376,418.492 579.5,421C 525.761,426.655 472.094,426.321 418.5,420C 394.617,416.091 370.95,411.258 347.5,405.5C 347.179,416.748 347.513,427.915 348.5,439C 441.937,460.987 535.937,463.321 630.5,446C 647.254,442.562 663.588,437.728 679.5,431.5C 680.666,453.492 680.833,475.492 680,497.5C 675.385,501.558 670.219,504.725 664.5,507C 630.688,517.969 596.022,524.636 560.5,527C 507.659,530.294 454.992,528.628 402.5,522C 380.172,518.781 358.505,513.114 337.5,505C 333.127,503.287 329.293,500.787 326,497.5C 325.168,392.93 325.335,288.43 326.5,184C 336.403,177.718 347.07,173.051 358.5,170C 406.261,158.273 454.761,152.773 504,153.5C 550.394,153.185 596.227,158.019 641.5,168C 655.051,171.125 667.718,176.292 679.5,183.5C 676.041,186.737 672.041,189.237 667.5,191C 645.447,199.078 622.78,204.744 599.5,208C 526.195,218.156 453.195,216.489 380.5,203C 369.884,200.554 359.384,197.721 349,194.5C 348.667,194.833 348.333,195.167 348,195.5C 347.18,206.743 347.347,217.91 348.5,229C 418.565,246.138 489.565,251.471 561.5,245C 597.877,242.566 633.543,236.232 668.5,226C 672.046,224.207 675.713,222.707 679.5,221.5C 680.666,243.492 680.833,265.492 680,287.5C 675.119,292.367 669.285,295.867 662.5,298C 634.154,307.114 605.154,313.114 575.5,316C 515.257,322.095 455.257,320.429 395.5,311C 380.077,307.801 364.744,304.301 349.5,300.5 Z"/></g>
<g><path style="opacity:1" fill="#875780" d="M -0.5,384.5 C -0.5,375.167 -0.5,365.833 -0.5,356.5C 7.63091,309.527 33.9642,277.36 78.5,260C 92.8138,255.408 107.48,253.574 122.5,254.5C 102.133,332.439 104.133,409.773 128.5,486.5C 68.6424,489.007 27.4757,462.674 5,407.5C 2.69968,399.806 0.866349,392.14 -0.5,384.5 Z"/></g>
<g><path style="opacity:0.734" fill="#bca0b6" d="M 349.5,300.5 C 348.505,311.321 348.172,322.321 348.5,333.5C 347.176,322.326 347.176,310.993 348.5,299.5C 349.107,299.624 349.44,299.957 349.5,300.5 Z"/></g>
</svg>
