<?xml version="1.0" encoding="UTF-8"?>
<!DOCTYPE svg PUBLIC "-//W3C//DTD SVG 1.1//EN" "http://www.w3.org/Graphics/SVG/1.1/DTD/svg11.dtd">
<svg xmlns="http://www.w3.org/2000/svg" version="1.1" width="1001px" height="724px" style="shape-rendering:geometricPrecision; text-rendering:geometricPrecision; image-rendering:optimizeQuality; fill-rule:evenodd; clip-rule:evenodd" xmlns:xlink="http://www.w3.org/1999/xlink">
<g><path style="opacity:1" fill="#cb2e5d" d="M 475.5,-0.5 C 491.167,-0.5 506.833,-0.5 522.5,-0.5C 644.235,10.0916 739.068,65.7582 807,166.5C 870.588,272.217 880.588,382.883 837,498.5C 791.219,603.611 713.719,673.777 604.5,709C 577.495,716.555 550.162,721.388 522.5,723.5C 506.833,723.5 491.167,723.5 475.5,723.5C 356.086,712.402 262.586,657.735 195,559.5C 135.341,463.548 121.341,361.215 153,252.5C 192.428,136.739 269.761,58.4055 385,17.5C 414.629,8.07411 444.795,2.07411 475.5,-0.5 Z"/></g>
<g><path style="opacity:0.999" fill="#fefefe" d="M 674.5,259.5 C 675.043,259.44 675.376,259.107 675.5,258.5C 651.67,257.171 628.003,257.171 604.5,258.5C 515.701,346.799 427.035,435.299 338.5,524C 303.835,524.5 269.168,524.667 234.5,524.5C 234.5,506.5 234.5,488.5 234.5,470.5C 262.544,470.825 290.544,470.491 318.5,469.5C 406.347,381.153 494.347,292.987 582.5,205C 613.5,204.667 644.5,204.333 675.5,204C 664.319,192.986 653.319,181.819 642.5,170.5C 654.5,157.833 666.833,145.5 679.5,133.5C 712.32,165.82 744.986,198.32 777.5,231C 744.626,263.707 711.959,296.541 679.5,329.5C 666.833,317.5 654.5,305.167 642.5,292.5C 653.188,281.479 663.855,270.479 674.5,259.5 Z"/></g>
<g><path style="opacity:0.999" fill="#fefdfe" d="M 234.5,204.5 C 269.168,204.333 303.835,204.5 338.5,205C 372.833,239.333 407.167,273.667 441.5,308C 429,320.5 416.5,333 404,345.5C 375.157,316.824 346.657,288.158 318.5,259.5C 290.544,258.509 262.544,258.175 234.5,258.5C 234.5,240.5 234.5,222.5 234.5,204.5 Z"/></g>
<g><path style="opacity:1" fill="#cb6e89" d="M -0.5,384.5 C -0.5,375.167 -0.5,365.833 -0.5,356.5C 7.63091,309.527 33.9642,277.36 78.5,260C 92.8138,255.408 107.48,253.574 122.5,254.5C 102.133,332.439 104.133,409.773 128.5,486.5C 68.6424,489.007 27.4757,462.674 5,407.5C 2.69968,399.806 0.866349,392.14 -0.5,384.5 Z"/></g>
<g><path style="opacity:1" fill="#cb6e89" d="M 1000.5,356.5 C 1000.5,365.833 1000.5,375.167 1000.5,384.5C 992.024,434.819 963.357,467.652 914.5,483C 900.343,486.099 886.009,487.266 871.5,486.5C 895.867,409.773 897.867,332.439 877.5,254.5C 924.183,253.421 960.017,272.421 985,311.5C 993.085,325.632 998.252,340.632 1000.5,356.5 Z"/></g>
<g><path style="opacity:0.729" fill="#ecb6c6" d="M 604.5,258.5 C 628.003,257.171 651.67,257.171 675.5,258.5C 675.376,259.107 675.043,259.44 674.5,259.5C 651.339,258.502 628.006,258.169 604.5,258.5 Z"/></g>
<g><path style="opacity:1" fill="#fefefe" d="M 604.5,470.5 C 628.003,471.829 651.67,471.829 675.5,470.5C 675.376,469.893 675.043,469.56 674.5,469.5C 663.855,458.521 653.188,447.521 642.5,436.5C 654.5,423.833 666.833,411.5 679.5,399.5C 711.959,432.459 744.626,465.293 777.5,498C 744.986,530.68 712.32,563.18 679.5,595.5C 666.833,583.5 654.5,571.167 642.5,558.5C 653.319,547.181 664.319,536.014 675.5,525C 644.5,524.667 613.5,524.333 582.5,524C 548.973,490.473 515.473,456.973 482,423.5C 481.018,422.241 480.685,420.908 481,419.5C 493,407.5 505,395.5 517,383.5C 546.035,412.702 575.201,441.702 604.5,470.5 Z"/></g>
<g><path style="opacity:0.729" fill="#ecb6c6" d="M 674.5,469.5 C 675.043,469.56 675.376,469.893 675.5,470.5C 651.67,471.829 628.003,471.829 604.5,470.5C 628.006,470.831 651.339,470.498 674.5,469.5 Z"/></g>
</svg>
