<?xml version="1.0" encoding="UTF-8"?>
<!DOCTYPE svg PUBLIC "-//W3C//DTD SVG 1.1//EN" "http://www.w3.org/Graphics/SVG/1.1/DTD/svg11.dtd">
<svg xmlns="http://www.w3.org/2000/svg" version="1.1" width="896px" height="896px" style="shape-rendering:geometricPrecision; text-rendering:geometricPrecision; image-rendering:optimizeQuality; fill-rule:evenodd; clip-rule:evenodd" xmlns:xlink="http://www.w3.org/1999/xlink">
<g><path style="opacity:0.987" fill="#000000" d="M 515.5,111.5 C 597.021,112.925 655.855,149.925 692,222.5C 702.942,248.376 708.442,275.376 708.5,303.5C 766.64,320.476 802.807,358.476 817,417.5C 827.288,477.313 809.455,526.813 763.5,566C 741.065,583.152 715.731,593.486 687.5,597C 638.168,597.5 588.834,597.667 539.5,597.5C 539.5,572.5 539.5,547.5 539.5,522.5C 585.501,522.667 631.501,522.5 677.5,522C 718.83,514.836 741.164,490.336 744.5,448.5C 742.534,411.388 723.867,387.221 688.5,376C 669.742,371.477 651.075,366.644 632.5,361.5C 632.556,334.483 632.056,307.483 631,280.5C 623.719,243.089 603.219,215.589 569.5,198C 527.079,179.973 487.412,184.639 450.5,212C 443.968,218.198 437.801,224.698 432,231.5C 418.333,254.167 404.667,276.833 391,299.5C 365.804,287.986 340.304,277.153 314.5,267C 254.911,253.416 206.745,270.916 170,319.5C 146.311,357.328 141.977,397.328 157,439.5C 178.631,488.572 216.131,516.072 269.5,522C 297.498,522.5 325.498,522.667 353.5,522.5C 353.5,547.5 353.5,572.5 353.5,597.5C 321.498,597.667 289.498,597.5 257.5,597C 179.634,586.415 123.801,545.915 90,475.5C 60.4453,401.695 68.4453,332.362 114,267.5C 165.105,204.897 230.939,178.731 311.5,189C 328.417,191.436 344.583,196.269 360,203.5C 396.02,146.352 447.854,115.685 515.5,111.5 Z"/></g>
<g><path style="opacity:0.988" fill="#000000" d="M 407.5,408.5 C 432.167,408.5 456.833,408.5 481.5,408.5C 481.619,499.168 482.119,589.835 483,680.5C 507.347,655.986 531.847,631.653 556.5,607.5C 574.5,624.833 592.167,642.5 609.5,660.5C 554.833,715.833 499.833,770.833 444.5,825.5C 389.167,770.833 334.167,715.833 279.5,660.5C 296.833,642.5 314.5,624.833 332.5,607.5C 357.153,631.653 381.653,655.986 406,680.5C 406.853,589.835 407.353,499.168 407.5,408.5 Z"/></g>
<g><path style="opacity:0.006" fill="#000000" d="M 370.5,593.5 C 371.837,594.315 372.837,595.482 373.5,597C 372.056,597.781 370.723,597.614 369.5,596.5C 370.127,595.583 370.461,594.583 370.5,593.5 Z"/></g>
<g><path style="opacity:0.026" fill="#000000" d="M 483.5,596.5 C 487.243,596.459 487.41,597.126 484,598.5C 483.536,597.906 483.369,597.239 483.5,596.5 Z"/></g>
</svg>
