<!DOCTYPE svg PUBLIC "-//W3C//DTD SVG 1.1//EN" "http://www.w3.org/Graphics/SVG/1.1/DTD/svg11.dtd">
<!-- Uploaded to: SVG Repo, www.svgrepo.com, Transformed by: SVG Repo Mixer Tools -->
<svg version="1.1" id="Uploaded to svgrepo.com" xmlns="http://www.w3.org/2000/svg" xmlns:xlink="http://www.w3.org/1999/xlink" width="800px" height="800px" viewBox="0 0 32.00 32.00" xml:space="preserve" fill="#000000" stroke="#000000" stroke-width="0.384" transform="rotate(90)matrix(1, 0, 0, -1, 0, 0)">
<g id="SVGRepo_bgCarrier" stroke-width="0"/>
<g id="SVGRepo_tracerCarrier" stroke-linecap="round" stroke-linejoin="round" stroke="#CCCCCC" stroke-width="0.064"/>
<g id="SVGRepo_iconCarrier"> <style type="text/css"> .linesandangles_een{fill:#111918;} .st0{fill:#111918;} </style> <path class="linesandangles_een" d="M25,4v4.101c0,2.137-0.832,4.146-2.343,5.657l-3.9,3.899c-0.477,0.477-0.858,1.023-1.146,1.612 c-0.232-0.764-0.573-1.49-1.003-2.168c0.225-0.299,0.465-0.589,0.734-0.858l3.9-3.899C22.376,11.21,23,9.703,23,8.101V4H25z M17,25.586v-3.687c0-2.137-0.832-4.146-2.343-5.657l-3.9-3.899C9.624,11.21,9,9.703,9,8.101V4H7v4.101 c0,2.137,0.832,4.146,2.343,5.657l3.9,3.899C14.376,18.79,15,20.297,15,21.899v3.687l-2.293-2.293l-1.414,1.414L16,29.414 l4.707-4.707l-1.414-1.414L17,25.586z"/> </g>
</svg>