<?xml version="1.0" encoding="UTF-8"?>
<!DOCTYPE svg PUBLIC "-//W3C//DTD SVG 1.1//EN" "http://www.w3.org/Graphics/SVG/1.1/DTD/svg11.dtd">
<svg xmlns="http://www.w3.org/2000/svg" version="1.1" width="900px" height="900px" style="shape-rendering:geometricPrecision; text-rendering:geometricPrecision; image-rendering:optimizeQuality; fill-rule:evenodd; clip-rule:evenodd" xmlns:xlink="http://www.w3.org/1999/xlink">
<g><path style="opacity:0.951" fill="#000000" d="M 447.5,15.5 C 451.792,15.0349 455.792,15.8682 459.5,18C 600.333,158.833 741.167,299.667 882,440.5C 885.333,445.167 885.333,449.833 882,454.5C 741.167,595.333 600.333,736.167 459.5,877C 454.167,880.333 448.833,880.333 443.5,877C 304.333,736.5 164.5,596.667 24,457.5C 20.6667,450.833 20.6667,444.167 24,437.5C 164.5,298.333 304.333,158.5 443.5,18C 445.066,17.3918 446.4,16.5585 447.5,15.5 Z M 464.5,61.5 C 593.479,189.812 722.146,318.479 850.5,447.5C 722.18,576.32 593.68,704.986 465,833.5C 464.333,788.167 464.333,742.833 465,697.5C 546,616.5 627,535.5 708,454.5C 711.333,449.833 711.333,445.167 708,440.5C 627,359.5 546,278.5 465,197.5C 464.5,152.168 464.333,106.835 464.5,61.5 Z M 436.5,62.5 C 437.665,107.665 437.831,152.998 437,198.5C 356.333,279.167 275.667,359.833 195,440.5C 191.667,445.167 191.667,449.833 195,454.5C 275.667,535.167 356.333,615.833 437,696.5C 437.667,741.833 437.667,787.167 437,832.5C 308.653,704.32 180.486,575.986 52.5,447.5C 180.521,319.146 308.521,190.812 436.5,62.5 Z M 464.5,235.5 C 535.479,305.812 606.146,376.479 676.5,447.5C 606.18,518.32 535.68,588.986 465,659.5C 464.5,518.167 464.333,376.834 464.5,235.5 Z M 436.5,236.5 C 437.666,376.999 437.833,517.666 437,658.5C 366.653,588.32 296.486,517.986 226.5,447.5C 296.521,377.146 366.521,306.812 436.5,236.5 Z"/></g>
</svg>
