<?xml version="1.0" encoding="UTF-8"?>
<!DOCTYPE svg PUBLIC "-//W3C//DTD SVG 1.1//EN" "http://www.w3.org/Graphics/SVG/1.1/DTD/svg11.dtd">
<svg xmlns="http://www.w3.org/2000/svg" version="1.1" width="800px" height="800px" style="shape-rendering:geometricPrecision; text-rendering:geometricPrecision; image-rendering:optimizeQuality; fill-rule:evenodd; clip-rule:evenodd" xmlns:xlink="http://www.w3.org/1999/xlink">
<g><path style="opacity:0.991" fill="#000000" d="M 398.5,25.5 C 410.914,36.4104 422.914,47.9104 434.5,60C 413.167,81.3333 391.833,102.667 370.5,124C 452.5,124.333 534.5,124.667 616.5,125C 676.513,134.028 718.013,166.528 741,222.5C 761.214,288.485 746.048,344.652 695.5,391C 672.363,409.395 646.029,420.395 616.5,424C 594.169,424.5 571.836,424.667 549.5,424.5C 549.5,407.833 549.5,391.167 549.5,374.5C 566.503,374.667 583.503,374.5 600.5,374C 644.936,371.212 675.769,349.379 693,308.5C 707.386,258.314 693.219,218.48 650.5,189C 635.057,179.972 618.39,175.306 600.5,175C 523.833,174.333 447.167,174.333 370.5,175C 391.833,196.333 413.167,217.667 434.5,239C 423.167,250.333 411.833,261.667 400.5,273C 399.833,273.667 399.167,273.667 398.5,273C 357.32,231.986 316.32,190.82 275.5,149.5C 316.521,108.146 357.521,66.8124 398.5,25.5 Z"/></g>
<g><path style="opacity:1" fill="#000000" d="M 49.5,49.5 C 116.167,49.5 182.833,49.5 249.5,49.5C 249.5,116.167 249.5,182.833 249.5,249.5C 182.833,249.5 116.167,249.5 49.5,249.5C 49.5,182.833 49.5,116.167 49.5,49.5 Z M 99.5,99.5 C 132.833,99.5 166.167,99.5 199.5,99.5C 199.5,132.833 199.5,166.167 199.5,199.5C 166.167,199.5 132.833,199.5 99.5,199.5C 99.5,166.167 99.5,132.833 99.5,99.5 Z"/></g>
<g><path style="opacity:1" fill="#000000" d="M 299.5,299.5 C 366.167,299.5 432.833,299.5 499.5,299.5C 499.5,366.167 499.5,432.833 499.5,499.5C 432.833,499.5 366.167,499.5 299.5,499.5C 299.5,432.833 299.5,366.167 299.5,299.5 Z M 349.5,349.5 C 382.833,349.5 416.167,349.5 449.5,349.5C 449.5,382.833 449.5,416.167 449.5,449.5C 416.167,449.5 382.833,449.5 349.5,449.5C 349.5,416.167 349.5,382.833 349.5,349.5 Z"/></g>
<g><path style="opacity:0.988" fill="#000000" d="M 182.5,374.5 C 204.833,374.5 227.167,374.5 249.5,374.5C 249.5,391.167 249.5,407.833 249.5,424.5C 228.143,424.17 206.81,424.67 185.5,426C 141.196,434.637 113.363,460.803 102,504.5C 95.3259,549.636 110.826,584.802 148.5,610C 163.943,619.028 180.61,623.694 198.5,624C 298.833,624.5 399.166,624.667 499.5,624.5C 499.5,641.167 499.5,657.833 499.5,674.5C 393.833,674.667 288.166,674.5 182.5,674C 122.487,664.972 80.9874,632.472 58,576.5C 37.7856,510.515 52.9523,454.348 103.5,408C 126.824,389.669 153.157,378.503 182.5,374.5 Z"/></g>
<g><path style="opacity:1" fill="#000000" d="M 549.5,549.5 C 616.167,549.5 682.833,549.5 749.5,549.5C 749.5,616.167 749.5,682.833 749.5,749.5C 682.833,749.5 616.167,749.5 549.5,749.5C 549.5,682.833 549.5,616.167 549.5,549.5 Z M 599.5,599.5 C 632.833,599.5 666.167,599.5 699.5,599.5C 699.5,632.833 699.5,666.167 699.5,699.5C 666.167,699.5 632.833,699.5 599.5,699.5C 599.5,666.167 599.5,632.833 599.5,599.5 Z"/></g>
</svg>
